# xmcd
#
# Track frame offsets:
#	150
#	19901
#	38452
#	56222
#	73066
#	87409
#	99374
#	119030
#	137695
#	155490
#	172278
#	186547
#
# Disc length: 2645 seconds
#
# Revision: 1
# Processed by: cddbd v1.5.2PL0 Copyright (c) Steve Scherf et al.
# Submitted via: audiograbber 1.83.01
#
DISCID=b10a530c
DTITLE=TRAVIS TRITT - CB20120
DYEAR=1900
DGENRE=KARAOKE
TTITLE0=TRAVIS TRITT - PUT SOME DRIVE IN YOUR COUNTRY (WVOCAL)
TTITLE1=TRAVIS TRITT - I'M GONNA BE SOMEBODY (WVOCAL)
TTITLE2=TRAVIS TRITT - ANYMORE (WVOCAL)
TTITLE3=TRAVIS TRITT - CAN I TRUST YOU WITH MY HEART (WVOCAL)
TTITLE4=TRAVIS TRITT - T-R-O-U-B-L-E (WVOCAL)
TTITLE5=TRAVIS TRITT - HERE'S A QUARTER CALL SOMEONE WHO CARES (WVOCAL)
TTITLE6=TRAVIS TRITT - PUT SOME DRIVE IN YOUR COUNTRY
TTITLE7=TRAVIS TRITT - I'M GONNA BE SOMEBODY
TTITLE8=TRAVIS TRITT - ANYMORE
TTITLE9=TRAVIS TRITT - CAN I TRUST YOU WITH MY HEART
TTITLE10=TRAVIS TRITT - T-R-O-U-B-L-E
TTITLE11=TRAVIS TRITT - HERE'S A QUARTER CALL SOMEONE WHO CARES
EXTD=
EXTT0=
EXTT1=
EXTT2=
EXTT3=
EXTT4=
EXTT5=
EXTT6=
EXTT7=
EXTT8=
EXTT9=
EXTT10=
EXTT11=
PLAYORDER=
